<svg width="1275" height="479" viewBox="0 0 1275 479" fill="none" xmlns="http://www.w3.org/2000/svg">
<path d="M337.217 157.521C330.577 121.908 309.559 98.2984 273.837 85.6906C258.536 80.2904 251.854 78.111 232.791 77.7117L151.302 330.759H84.3007L167.6 80.1069C144.773 82.4732 128.365 85.6906 128.365 85.6906V22.9143C128.365 22.9143 217.068 11.635 272.026 22.9143C302.81 29.2324 321.522 31.1809 348.082 47.6626C372.81 63.0081 380.891 76.6187 392.749 103.195C400.864 121.382 405.425 137.607 405.425 157.521C405.425 219.694 398.182 235.991 377.055 293.939C365.645 325.235 356.175 345.761 335.406 371.805C319.607 391.615 293.152 414.662 273.837 427.338C251.706 441.862 232.149 445.7 205.024 449.672C131.787 460.396 15.4883 441.221 15.4883 441.221V378.445C15.4883 378.445 139.834 402.59 205.024 385.689C244.905 375.349 266.028 353.607 291.342 321.101C330.227 271.169 343.856 193.135 337.217 157.521Z" fill="black" stroke="black" stroke-width="2"/>
<path d="M404.215 308.845L460.351 110.858H602.201L592.463 148.886H494.073L483.329 190.838H581.719L571.98 228.866H473.59L462.847 270.817H561.236L551.498 308.845H404.215Z" fill="black" stroke="black" stroke-width="2"/>
<path d="M654.943 308.845H575.648C580.477 291.34 613.073 169.611 631.785 110.858H675.245L634.28 270.817L730.175 110.858H773.635L654.943 308.845Z" fill="black" stroke="black" stroke-width="2"/>
<path d="M322.728 140.62C316.088 105.006 295.071 81.3971 259.348 68.7893C244.048 63.3891 237.366 61.2097 218.302 60.8104L136.814 313.858H69.8124L153.112 63.2057C130.285 65.5719 113.877 68.7893 113.877 68.7893V6.01303C113.877 6.01303 202.58 -5.26628 257.538 6.01303C288.322 12.3311 307.034 14.2796 333.593 30.7614C358.321 46.1068 366.402 59.7174 378.261 86.2942C386.376 104.48 390.937 120.705 390.937 140.62C390.937 202.792 387.919 221.924 366.792 279.871C355.382 311.168 341.687 328.86 320.917 354.904C305.119 374.714 278.664 397.761 259.348 410.437C237.218 424.96 217.661 428.799 190.536 432.771C117.299 443.495 1 424.32 1 424.32V361.544C1 361.544 125.345 385.689 190.536 368.787C230.417 358.448 251.54 336.705 276.853 304.2C315.739 254.268 329.368 176.233 322.728 140.62Z" fill="white" stroke="black" stroke-width="2"/>
<path d="M390.934 288.322L447.07 90.3354H588.92L579.181 128.363H480.792L470.048 170.315H568.438L558.699 208.343H460.309L449.565 250.294H547.955L538.216 288.322H390.934Z" fill="white" stroke="black" stroke-width="2"/>
<path d="M646.49 288.322H567.195C572.024 270.817 604.62 149.088 623.332 90.3354H666.792L625.827 250.294L721.721 90.3354H765.182L646.49 288.322Z" fill="white" stroke="black" stroke-width="2"/>
<path d="M479.073 348.684L468.561 389.73H438.774L442.931 373.495H408.525L395.162 425.676L388.152 453.047H422.558L425.642 441.006L428.726 428.965H458.513L452.345 453.047L445.991 477.858H349.898L374.201 392.144L386.524 348.684H479.073Z" fill="black" stroke="black" stroke-width="2"/>
<path fill-rule="evenodd" clip-rule="evenodd" d="M560.679 477.858H464.586L501.212 348.684H593.76L560.679 477.858ZM502.84 453.047L523.213 373.495H557.619C557.619 373.495 537.246 451.166 537.246 453.047H502.84Z" fill="black" stroke="black" stroke-width="2"/>
<path d="M597.541 392.144L609.864 348.684H639.651L647.483 381.361L672.625 348.684H702.412L669.409 477.556L669.331 477.858H640.394L657.865 407.84L631.56 442.771L623.663 408.524L605.138 477.858H573.238L597.541 392.144Z" fill="black" stroke="black" stroke-width="2"/>
<path d="M706.194 392.144L718.516 348.684H748.303L756.136 381.361L781.278 348.684H811.065L778.061 477.556L777.984 477.858H749.047L766.517 407.84L740.212 442.771L732.315 408.524L713.79 477.858H681.891L706.194 392.144Z" fill="black" stroke="black" stroke-width="2"/>
<path d="M901.564 428.965L895.396 453.047L889.042 477.858H792.949L817.252 392.144L829.575 348.684H857.665L838.213 425.676L831.203 453.047H866.459L892.071 348.684H922.123L901.564 428.965Z" fill="black"/>
<path d="M895.396 453.047L922.123 348.684H892.071L866.459 453.047H831.203L838.213 425.676L857.665 348.684H829.575L817.252 392.144L792.949 477.858H889.042L895.396 453.047ZM895.396 453.047L901.564 428.965" stroke="black" stroke-width="2"/>
<path d="M923.502 392.144L935.825 348.684H965.612L981.246 416.392L998.586 348.684H1028.37L995.37 477.556L995.292 477.858H966.355L949.624 408.524L931.099 477.858H899.199L923.502 392.144Z" fill="black" stroke="black" stroke-width="2"/>
<path d="M1008.12 459.208L1032.42 373.495L1039.46 348.684H1073.86L1066.83 373.495L1042.53 459.208L1037.41 477.254H1003L1008.12 459.208Z" fill="black" stroke="black" stroke-width="2"/>
<path d="M1172.03 348.684H1079.48L1072.45 373.495H1101.48L1077.18 459.208L1072.06 477.254H1106.47L1111.59 459.208L1135.89 373.495H1165.58L1172.03 348.684Z" fill="black" stroke="black" stroke-width="2"/>
<path d="M1179.44 348.684H1208.48L1215.67 382.937L1242.3 348.684H1271.99L1225.75 408.151L1206.43 477.254H1172.02L1191.79 407.528L1179.44 348.684Z" fill="black" stroke="black" stroke-width="2"/>
<path d="M473.026 332.99L462.514 374.036H432.727L436.885 357.801H402.478L389.115 409.982L382.105 437.353H416.511L419.595 425.312L422.679 413.271H452.466L446.299 437.353L439.945 462.164H343.852L368.155 376.45L380.477 332.99H473.026Z" fill="white" stroke="black" stroke-width="2"/>
<path fill-rule="evenodd" clip-rule="evenodd" d="M554.632 462.164H458.539L495.165 332.99H587.713L554.632 462.164ZM496.793 437.353L517.166 357.801H551.572C551.572 357.801 531.199 435.472 531.199 437.353H496.793Z" fill="white" stroke="black" stroke-width="2"/>
<path d="M591.494 376.45L603.817 332.99H633.604L641.436 365.667L666.578 332.99H696.366L663.362 461.862L663.284 462.164H634.348L651.818 392.146L625.513 427.077L617.616 392.83L599.091 462.164H567.191L591.494 376.45Z" fill="white" stroke="black" stroke-width="2"/>
<path d="M700.147 376.45L712.469 332.99H742.256L750.089 365.667L775.231 332.99H805.018L772.014 461.862L771.937 462.164H743L760.47 392.146L734.166 427.077L726.268 392.83L707.743 462.164H675.844L700.147 376.45Z" fill="white" stroke="black" stroke-width="2"/>
<path d="M895.517 413.271L889.349 437.353L882.995 462.164H786.902L811.205 376.45L823.528 332.99H851.618L832.166 409.982L825.156 437.353H860.413L886.024 332.99H916.077L895.517 413.271Z" fill="white"/>
<path d="M889.349 437.353L916.077 332.99H886.024L860.413 437.353H825.156L832.166 409.982L851.618 332.99H823.528L811.205 376.45L786.902 462.164H882.995L889.349 437.353ZM889.349 437.353L895.517 413.271" stroke="black" stroke-width="2"/>
<path d="M917.455 376.45L929.778 332.99H959.565L975.2 400.698L992.539 332.99H1022.33L989.323 461.862L989.245 462.164H960.309L943.577 392.83L925.052 462.164H893.152L917.455 376.45Z" fill="white" stroke="black" stroke-width="2"/>
<path d="M1002.07 443.514L1026.38 357.801L1033.41 332.99H1067.82L1060.78 357.801L1036.48 443.514L1031.36 461.56H996.957L1002.07 443.514Z" fill="white" stroke="black" stroke-width="2"/>
<path d="M1165.98 332.99H1073.43L1066.4 357.801H1095.43L1071.13 443.514L1066.01 461.56H1100.42L1105.53 443.514L1129.84 357.801H1159.53L1165.98 332.99Z" fill="white" stroke="black" stroke-width="2"/>
<path d="M1173.39 332.99H1202.43L1209.62 367.242L1236.25 332.99H1265.94L1219.71 392.457L1200.38 461.56H1165.98L1185.75 391.834L1173.39 332.99Z" fill="white" stroke="black" stroke-width="2"/>
</svg>
